<svg width="50" height="50" viewBox="0 0 50 50" fill="none" xmlns="http://www.w3.org/2000/svg">
<path d="M36.4584 13.5415H36.4793M14.5834 4.1665H35.4168C41.1697 4.1665 45.8334 8.8302 45.8334 14.5832V35.4165C45.8334 41.1695 41.1697 45.8332 35.4168 45.8332H14.5834C8.83045 45.8332 4.16675 41.1695 4.16675 35.4165V14.5832C4.16675 8.8302 8.83045 4.1665 14.5834 4.1665ZM33.3334 23.6873C33.5905 25.4212 33.2944 27.192 32.4871 28.7478C31.6798 30.3036 30.4025 31.5653 28.8368 32.3533C27.2711 33.1414 25.4968 33.4157 23.7663 33.1372C22.0358 32.8587 20.4371 32.0417 19.1977 30.8023C17.9582 29.5628 17.1412 27.9642 16.8627 26.2336C16.5843 24.5031 16.8586 22.7288 17.6466 21.1631C18.4346 19.5975 19.6963 18.3201 21.2521 17.5128C22.808 16.7056 24.5787 16.4094 26.3126 16.6665C28.0812 16.9288 29.7185 17.7529 30.9828 19.0171C32.247 20.2814 33.0712 21.9187 33.3334 23.6873Z" stroke="#F3F3F3" stroke-width="4" stroke-linecap="round" stroke-linejoin="round"/>
</svg>
